<svg width="15" height="18" viewBox="0 0 15 18" fill="none" xmlns="http://www.w3.org/2000/svg">
<path d="M7.06227 0.724609C7.07192 3.62856 7.08157 6.5325 7.09155 9.52444C7.63292 9.39817 8.17435 9.27196 8.73216 9.14181C8.76118 9.14181 8.7902 9.14181 8.82007 9.14181C8.81968 9.11185 8.81929 9.08196 8.8189 9.05105C8.80977 8.3205 8.80305 7.59002 8.79881 6.85944C8.79672 6.50613 8.79379 6.15285 8.78909 5.79957C8.78498 5.49147 8.78238 5.18341 8.78146 4.87528C8.78094 4.71226 8.7797 4.54933 8.7767 4.38633C8.7739 4.23256 8.77305 4.07891 8.77364 3.9251C8.77357 3.86899 8.77272 3.81289 8.77116 3.75681C8.76333 3.46472 8.78107 3.26398 8.96407 3.0389C9.03444 2.95997 9.10709 2.88478 9.18261 2.81167C9.24268 2.75296 9.29785 2.68989 9.3529 2.62566C9.6019 2.3598 10.2394 1.68112 10.6072 1.68112C10.6072 4.00638 10.6072 6.33163 10.6072 8.7274C10.7619 8.6853 10.9166 8.64321 11.0759 8.5998C11.2116 8.56692 11.3472 8.53462 11.4832 8.50341C11.5398 8.49033 11.5398 8.49033 11.5974 8.47696C11.6991 8.45343 11.8008 8.43005 11.9024 8.40666C12.0094 8.38203 12.1163 8.35726 12.2232 8.33256C12.4023 8.29127 12.5813 8.24998 12.7603 8.20877C12.9673 8.16112 13.1742 8.1134 13.3812 8.06554C13.5809 8.01943 13.7808 7.97332 13.9805 7.92728C14.0654 7.90769 14.1502 7.88811 14.2351 7.86852C14.353 7.84126 14.471 7.81415 14.5889 7.78701C14.6417 7.77479 14.6417 7.77479 14.6956 7.76233C14.7275 7.755 14.7595 7.74768 14.7924 7.74012C14.8203 7.7337 14.8481 7.72729 14.8768 7.72067C14.9431 7.70709 14.9431 7.70709 15.0017 7.70709C15.0086 7.934 14.9846 8.14051 14.9431 8.36267C14.9367 8.39701 14.9304 8.43143 14.9238 8.4668C14.8417 8.88773 14.7261 9.30836 14.5642 9.70166C14.552 9.73133 14.552 9.73133 14.5395 9.76165C14.4626 9.86842 14.3206 9.88735 14.2037 9.91431C14.1582 9.92491 14.1582 9.92491 14.1119 9.93572C14.0789 9.94325 14.046 9.95078 14.0121 9.95852C13.9771 9.96656 13.9422 9.97467 13.9062 9.983C13.8106 10.0051 13.7151 10.0271 13.6195 10.049C13.5396 10.0673 13.4598 10.0857 13.3799 10.1042C13.1915 10.1476 13.0031 10.1909 12.8146 10.2342C12.6203 10.2787 12.426 10.3235 12.2318 10.3683C12.0649 10.4069 11.8979 10.4454 11.7309 10.4837C11.6313 10.5066 11.5316 10.5295 11.432 10.5526C11.321 10.5782 11.2098 10.6036 11.0988 10.6291C11.0658 10.6367 11.0329 10.6443 10.9989 10.6522C10.9686 10.6591 10.9383 10.666 10.9071 10.6731C10.8677 10.6821 10.8677 10.6821 10.8275 10.6913C10.7536 10.7041 10.7536 10.7041 10.6072 10.7041C10.6072 11.346 10.6072 11.9878 10.6072 12.649C10.8585 12.5859 11.1099 12.5228 11.3689 12.4578C11.5067 12.4246 11.6445 12.3918 11.7825 12.3599C11.8174 12.3518 11.8523 12.3437 11.8882 12.3353C11.9998 12.3094 12.1115 12.2835 12.2231 12.2577C12.302 12.2394 12.3809 12.2211 12.4598 12.2028C12.6232 12.1649 12.7867 12.1269 12.9502 12.0892C13.139 12.0454 13.3279 12.0016 13.5167 11.9578C13.6998 11.9152 13.8828 11.8728 14.0658 11.8304C14.1433 11.8124 14.2208 11.7944 14.2983 11.7765C14.4056 11.7515 14.513 11.7266 14.6204 11.7018C14.6684 11.6907 14.6684 11.6907 14.7174 11.6793C14.7465 11.6725 14.7755 11.6658 14.8055 11.6589C14.8308 11.6531 14.8561 11.6472 14.8822 11.6412C14.9431 11.6288 14.9431 11.6288 15.0017 11.6288C15.0083 11.8535 14.9857 12.0582 14.945 12.2783C14.9386 12.3125 14.9324 12.3465 14.9259 12.3816C14.8467 12.7875 14.7312 13.1875 14.5915 13.5736C14.5833 13.6051 14.5751 13.6364 14.5666 13.6687C14.4661 13.8222 14.3311 13.8272 14.167 13.8621C14.1147 13.8741 14.1147 13.8741 14.0614 13.8865C13.9653 13.9085 13.869 13.9299 13.7727 13.9509C13.67 13.9736 13.5676 13.9971 13.4651 14.0206C13.2688 14.0654 13.0724 14.1093 12.876 14.1529C12.6597 14.2009 12.4436 14.2498 12.2275 14.2989C11.9515 14.3614 11.6754 14.4239 11.3993 14.4858C10.7457 14.6324 10.0929 14.7827 9.44048 14.9349C9.38518 14.9478 9.32988 14.9607 9.27457 14.9736C9.2074 14.9893 9.14022 15.005 9.07305 15.0207C9.04377 15.0276 9.01455 15.0344 8.98435 15.0415C8.95885 15.0474 8.93329 15.0534 8.90701 15.0595C8.84935 15.0722 8.84935 15.0722 8.82007 15.0722C8.82007 13.778 8.82007 12.4838 8.82007 11.1505C8.27864 11.2768 7.73727 11.403 7.1794 11.5331C7.14079 11.5331 7.10211 11.5331 7.06227 11.5331C7.06285 11.5774 7.06285 11.5774 7.06344 11.6226C7.06696 11.9021 7.06964 12.1815 7.07133 12.4611C7.07225 12.6048 7.07348 12.7485 7.07551 12.8921C7.0774 13.031 7.07844 13.17 7.0789 13.3089C7.07922 13.3616 7.07988 13.4143 7.08085 13.467C7.08672 13.8055 7.05979 14.046 6.88644 14.3388C6.87164 14.3651 6.85677 14.3914 6.84151 14.4184C6.79696 14.4951 6.75066 14.5702 6.70344 14.6451C6.68661 14.6722 6.66985 14.6993 6.65251 14.7272C6.61729 14.7838 6.58194 14.8404 6.54653 14.8968C6.49279 14.9825 6.4394 15.0684 6.38607 15.1543C6.35151 15.2098 6.31693 15.2652 6.28233 15.3206C6.26663 15.3458 6.25094 15.371 6.23478 15.3971C6.08785 15.6309 5.93768 15.8697 5.74388 16.0606C5.72598 16.0782 5.70808 16.0959 5.68964 16.1141C5.33986 16.4366 4.88136 16.5031 4.44589 16.6012C4.38038 16.6163 4.31488 16.6313 4.24938 16.6464C4.1087 16.6788 3.96798 16.711 3.82724 16.7431C3.60097 16.7947 3.37486 16.8473 3.14879 16.8999C3.1099 16.9089 3.07101 16.918 3.03212 16.9271C2.97334 16.9408 2.91455 16.9545 2.85577 16.9682C2.63881 17.0187 2.4218 17.0691 2.2048 17.1194C2.1454 17.1331 2.08602 17.147 2.02663 17.1607C1.98687 17.1699 1.94711 17.1791 1.90735 17.1883C1.74357 17.2263 1.57979 17.2643 1.41601 17.3024C1.25554 17.3397 1.09505 17.3769 0.934564 17.4141C0.839822 17.436 0.745081 17.458 0.65035 17.48C0.546475 17.5042 0.442592 17.5283 0.338708 17.5523C0.292255 17.5631 0.292255 17.5631 0.244862 17.5742C0.216908 17.5806 0.188952 17.5871 0.16015 17.5937C0.13576 17.5994 0.111371 17.6051 0.0862413 17.6109C0.0309903 17.6228 0.0309903 17.6228 0.00169338 17.6228C-0.00631291 17.3922 0.0143119 17.1807 0.0584561 16.9553C0.0647204 16.9229 0.070985 16.8905 0.0774389 16.8571C0.15924 16.4564 0.27441 16.0602 0.41185 15.678C0.422863 15.646 0.433876 15.6139 0.445223 15.5809C0.49974 15.4866 0.49974 15.4866 0.588951 15.4453C0.625846 15.4371 0.662744 15.4288 0.700753 15.4204C0.721283 15.4155 0.741814 15.4107 0.762964 15.4057C0.831651 15.3898 0.900507 15.3751 0.969403 15.3604C1.01851 15.3493 1.06759 15.338 1.11667 15.3268C1.24945 15.2964 1.38241 15.267 1.51542 15.2379C1.65391 15.2074 1.79221 15.1759 1.93054 15.1446C2.13038 15.0993 2.33028 15.0542 2.53024 15.0095C2.89021 14.9291 3.24964 14.8461 3.60887 14.7618C3.66022 14.7497 3.71157 14.7378 3.76291 14.7257C3.93473 14.6854 4.10653 14.6452 4.27833 14.6048C4.41541 14.5726 4.55251 14.5405 4.68964 14.5087C4.73095 14.499 4.77226 14.4894 4.81354 14.4796C4.86967 14.4664 4.92583 14.4533 4.98199 14.4403C5.01334 14.433 5.04469 14.4256 5.077 14.4181C5.15794 14.4026 5.15794 14.4026 5.27513 14.4026C5.26546 13.603 5.2558 12.8033 5.24583 11.9795C4.56852 12.1358 4.56852 12.1358 3.89119 12.2922C3.61474 12.356 3.33829 12.4198 3.06183 12.4835C2.86043 12.53 2.65904 12.5766 2.45764 12.6231C2.35116 12.6476 2.24468 12.6722 2.1382 12.6968C2.01887 12.7243 1.89953 12.7519 1.78021 12.7794C1.72817 12.7914 1.72817 12.7914 1.67509 12.8036C1.64199 12.8113 1.60889 12.819 1.57478 12.8268C1.52672 12.8378 1.52672 12.8378 1.47769 12.8492C1.40762 12.8654 1.33763 12.8822 1.2677 12.8992C1.21321 12.9124 1.21321 12.9124 1.15763 12.9258C1.12488 12.9338 1.09214 12.9419 1.0584 12.9502C0.977027 12.9661 0.904394 12.9714 0.822005 12.9678C0.837201 12.716 0.864357 12.4717 0.911725 12.2246C0.917933 12.1921 0.924142 12.1596 0.93054 12.1261C1.00242 11.7699 1.1093 11.4258 1.23216 11.0868C1.24196 11.0485 1.25176 11.0103 1.26185 10.9709C1.32447 10.8554 1.33229 10.8466 1.44261 10.8112C1.49582 10.7985 1.54926 10.7868 1.60283 10.776C1.63246 10.7692 1.66208 10.7624 1.6926 10.7554C1.79226 10.7328 1.89213 10.7115 1.99205 10.6902C2.0624 10.6745 2.13274 10.6587 2.20306 10.6427C2.33786 10.6124 2.47271 10.5824 2.60764 10.5527C2.88976 10.4907 3.17132 10.4261 3.45279 10.3607C3.58023 10.3311 3.70768 10.3016 3.83513 10.2721C3.86021 10.2662 3.88529 10.2605 3.91114 10.2545C3.98677 10.2369 4.06241 10.2195 4.13805 10.2019C4.16306 10.1962 4.18807 10.1904 4.21384 10.1844C4.35878 10.1509 4.50374 10.1175 4.64875 10.0844C4.69326 10.0742 4.73777 10.064 4.78227 10.0537C4.84343 10.0395 4.90462 10.0255 4.96582 10.0116C5.00026 10.0037 5.03469 9.99579 5.07017 9.98761C5.15794 9.9708 5.15794 9.9708 5.27513 9.9708C5.27477 9.91212 5.27477 9.91212 5.2744 9.8522C5.26868 8.92237 5.26433 7.99246 5.26167 7.06262C5.26134 6.9481 5.26099 6.83356 5.26065 6.71903C5.26054 6.68483 5.26054 6.68483 5.26044 6.64994C5.25929 6.28109 5.25721 5.91226 5.25479 5.54342C5.25232 5.16476 5.25086 4.7861 5.25033 4.40743C5.24999 4.19481 5.24917 3.98223 5.24725 3.76962C5.24546 3.56942 5.24491 3.36925 5.24531 3.16903C5.24524 3.09564 5.24472 3.02225 5.2437 2.94887C5.23552 2.32526 5.23552 2.32526 5.40266 2.12117C5.44723 2.07971 5.49256 2.03918 5.5388 1.99995C5.57266 1.95828 5.6058 1.91589 5.63768 1.87242C5.89094 1.55761 6.63255 0.724609 7.06227 0.724609Z" fill="black"/>
</svg>
