<svg width="117" height="161" viewBox="0 0 117 161" fill="none" xmlns="http://www.w3.org/2000/svg">
<path d="M77.9926 110.987C73.9911 111.569 70.1315 112.885 66.608 114.868C69.1239 99.0116 76.5649 74.5251 76.5649 74.5251C86.0626 63.9519 88.5974 55.731 88.5974 55.731L86.6349 55.2718C86.0437 57.2972 83.5718 64.8827 76.2504 68.556C74.4964 69.4329 72.6125 70.0212 70.6712 70.2983C61.8375 63.6971 54.8959 54.8878 50.5437 44.7552C48.1782 39.141 46.6645 33.2049 46.0527 27.1436L45.1847 27.3071C44.0965 55.687 70.2876 70.0153 69.7152 78.3242C69.3315 83.7209 64.6267 93.9797 62.0604 103.27C59.8967 111.107 59.859 118.101 58.211 122.517C54.412 117 50.3001 111.706 45.8954 106.66C42.7882 103.094 39.6999 99.8418 36.6933 96.8919L35.5234 97.5209C39.5443 101.624 43.1608 106.104 46.3231 110.899C49.0404 115.026 53.3112 121.504 55.8083 130.014C59.3306 142.034 57.8336 153.079 55.9529 160.413L74.1558 160.929C74.1558 160.929 66.0293 136.461 65.8029 123.511V123.379C68.1742 119.196 71.9481 114.151 78.7286 112.101C83.3453 110.704 87.5344 111.182 90.4277 111.535C86.3538 110.573 82.1353 110.388 77.9926 110.987Z" fill="#24A19C"/>
<path d="M23.3646 57.6839C23.8441 58.6525 24.0256 59.7416 23.8862 60.8134C23.7467 61.8853 23.2927 62.8917 22.5814 63.7055C21.8701 64.5193 20.9335 65.104 19.89 65.3856C18.8465 65.6672 17.7429 65.6331 16.7188 65.2876C15.6946 64.9421 14.7959 64.3008 14.1362 63.4446C13.4765 62.5884 13.0855 61.5559 13.0125 60.4775C12.9395 59.3992 13.1879 58.3234 13.7262 57.3861C14.2645 56.4489 15.0686 55.6923 16.0369 55.2119C16.6803 54.8928 17.3803 54.7035 18.0969 54.6551C18.8134 54.6066 19.5325 54.6998 20.213 54.9293C20.8935 55.1589 21.5222 55.5203 22.0629 55.993C22.6037 56.4656 23.046 57.0402 23.3646 57.6839Z" fill="#FFB347"/>
<path d="M22.7963 57.986C23.221 58.8434 23.3818 59.8074 23.2585 60.7562C23.1352 61.705 22.7332 62.5959 22.1035 63.3163C21.4738 64.0366 20.6446 64.554 19.7208 64.803C18.797 65.052 17.8201 65.0215 16.9137 64.7152C16.0072 64.409 15.212 63.8408 14.6285 63.0825C14.045 62.3242 13.6996 61.41 13.6358 60.4553C13.572 59.5007 13.7927 58.5485 14.2701 57.7194C14.7475 56.8902 15.4601 56.2213 16.3177 55.7971C17.4672 55.2287 18.7953 55.1399 20.0102 55.5504C21.225 55.9608 22.2272 56.8369 22.7963 57.986Z" fill="#F9DEBB"/>
<path d="M22.3009 58.2314C22.6772 58.9906 22.8199 59.8444 22.7109 60.6847C22.6019 61.525 22.2462 62.3142 21.6886 62.9522C21.1311 63.5903 20.3968 64.0487 19.5787 64.2694C18.7605 64.4901 17.8954 64.4632 17.0926 64.192C16.2897 63.9209 15.5854 63.4178 15.0686 62.7462C14.5518 62.0747 14.2458 61.265 14.1892 60.4196C14.1327 59.5741 14.3282 58.7309 14.751 57.9965C15.1738 57.2622 15.8049 56.6698 16.5645 56.2942C17.5825 55.7927 18.7577 55.715 19.8328 56.0781C20.9079 56.4411 21.7954 57.2155 22.3009 58.2314Z" fill="#FFB347"/>
<g style="mix-blend-mode:overlay" opacity="0.23">
<path d="M17.2167 54.8099C18.0155 55.0042 18.7737 55.3385 19.4558 55.7974C21.7957 57.4642 22.5001 61.3891 20.1163 63.534C19.119 64.4349 17.8868 65.0347 16.5625 65.2637C17.3624 65.5565 18.2197 65.6583 19.0659 65.5611C19.9121 65.4638 20.7239 65.17 21.4365 64.7033C22.149 64.2366 22.7427 63.6098 23.17 62.8729C23.5973 62.136 23.8465 61.3095 23.8976 60.4592C23.9488 59.6089 23.8005 58.7585 23.4646 57.9757C23.1288 57.1929 22.6146 56.4994 21.9631 55.9506C21.3117 55.4018 20.541 55.0129 19.7125 54.8148C18.884 54.6168 18.0207 54.6151 17.1915 54.8099H17.2167Z" fill="black"/>
</g>
<path d="M60.6914 91.583L11.0859 108.722L12.1602 111.831L61.7656 94.6923L60.6914 91.583Z" fill="#009ABF"/>
<path d="M50.3387 67.2337L4.19922 83.1748L12.8178 108.12L58.9573 92.179L50.3387 67.2337Z" fill="#24A19C"/>
<path d="M39.4686 55.6198L5.32031 67.418L7.37432 73.363L41.5227 61.5648L39.4686 55.6198Z" fill="#7FDEDA"/>
<path d="M60.6875 91.5811L11.082 108.72L11.6551 110.378L61.2605 93.2398L60.6875 91.5811Z" fill="#24A19C"/>
<path d="M31.6405 82.0048L11.3203 89.0254L15.1962 100.244L35.5164 93.2231L31.6405 82.0048Z" fill="#EDEDED"/>
<path d="M30.9935 83.7131L12.8789 89.9717L15.9455 98.8476L34.0601 92.5891L30.9935 83.7131Z" fill="#92C9F8"/>
<path d="M48.5675 76.1619L37.1055 80.1221L43.1586 97.6421L54.6207 93.682L48.5675 76.1619Z" fill="#EDEDED"/>
<path d="M47.9512 77.8031L38.5938 81.0361L44.2053 97.278L53.5628 94.045L47.9512 77.8031Z" fill="#92C9F8"/>
<path d="M36.0009 91.9232L13.9805 99.5312L14.5659 101.226L36.5863 93.6175L36.0009 91.9232Z" fill="#EDEDED"/>
<g opacity="0.34">
<path d="M21.0058 87.1777L19.1063 97.7762L17.4961 98.3297L19.3894 87.7375L21.0058 87.1777Z" fill="white"/>
<path d="M26.3143 85.3477L24.4211 95.9398L23.8047 96.1536L25.6979 85.5615L26.3143 85.3477Z" fill="white"/>
<path d="M29.4463 84.2656L27.553 94.8578L25.3516 95.6188L27.2511 85.0204L29.4463 84.2656Z" fill="white"/>
<path d="M22.2823 86.7373L20.3891 97.3294L19.584 97.6125L21.4772 87.0141L22.2823 86.7373Z" fill="white"/>
</g>
<g opacity="0.34">
<path d="M45.0975 78.8008L42.267 91.6761L41.3047 88.9023L43.3992 79.392L45.0975 78.8008Z" fill="white"/>
<path d="M49.1303 81.2344L49.5014 82.2974L46.3627 96.5502L45.7148 96.7703L49.1303 81.2344Z" fill="white"/>
<path d="M50.0547 83.9014L51.3567 87.6816L49.6584 95.4118L47.3438 96.2106L50.0547 83.9014Z" fill="white"/>
<path d="M46.4442 78.335L43.0288 93.8772L42.5508 92.4872L45.5951 78.6306L46.4442 78.335Z" fill="white"/>
</g>
<path d="M7.01803 69.9883L0.476562 72.2463L0.904269 83.0964L8.28858 80.549L7.01803 69.9883Z" fill="#24A19C"/>
<path d="M13.5508 67.7305L7.01562 69.9885L8.28618 80.5492L15.6768 77.9955L13.5508 67.7305Z" fill="#EDEDED"/>
<path d="M20.0923 65.4717L13.5508 67.7297L15.6768 77.9948L23.0611 75.4411L20.0923 65.4717Z" fill="#24A19C"/>
<path d="M33.1704 60.9561L26.6289 63.2141L30.4469 72.8942L37.8375 70.3405L33.1704 60.9561Z" fill="#24A19C"/>
<path d="M46.2485 56.4395L39.707 58.6975L45.2232 67.7864L52.6076 65.239L46.2485 56.4395Z" fill="#24A19C"/>
<path d="M26.6289 63.2139L20.0938 65.4719L23.0626 75.4414L30.4469 72.894L26.6289 63.2139Z" fill="#EDEDED"/>
<path d="M39.7071 58.6982L33.1719 60.9563L37.839 70.3408L45.2233 67.7871L39.7071 58.6982Z" fill="#EDEDED"/>
<path d="M8.28666 80.5488L0.902344 83.0648L2.74528 88.3923C3.39422 88.7179 4.10147 88.9112 4.82584 88.9608C5.5502 89.0104 6.27721 88.9153 6.96448 88.6812C7.65174 88.447 8.28553 88.0784 8.82893 87.5969C9.37233 87.1153 9.81447 86.5305 10.1296 85.8763L8.28666 80.5488Z" fill="#7FDEDA"/>
<path d="M15.6797 77.9951L8.28906 80.5488L10.1446 85.8763C10.796 86.1998 11.5052 86.3904 12.231 86.4369C12.9568 86.4834 13.6846 86.385 14.372 86.1473C15.0593 85.9096 15.6925 85.5374 16.2345 85.0524C16.7765 84.5675 17.2165 83.9794 17.5289 83.3226L15.6797 77.9951Z" fill="#DBDBDB"/>
<path d="M23.064 75.4414L15.6797 77.9951L17.5163 83.3226C18.1677 83.6489 18.8777 83.8416 19.6046 83.8895C20.3315 83.9374 21.0607 83.8396 21.7492 83.6017C22.4378 83.3637 23.0718 82.9906 23.6141 82.5041C24.1564 82.0177 24.5959 81.4277 24.9069 80.7689C24.2905 78.9952 23.6762 77.2193 23.064 75.4414Z" fill="#7FDEDA"/>
<path d="M37.8203 70.3398L30.4297 72.8935L32.2726 78.221C33.6303 78.8418 35.1774 78.9051 36.5812 78.3972C37.9124 77.905 39.0101 76.9307 39.6569 75.6674L37.8203 70.3398Z" fill="#7FDEDA"/>
<path d="M52.607 65.2393L45.2227 67.7552L47.0656 73.089C47.7467 73.4211 48.4882 73.6114 49.2451 73.6481C50.002 73.6849 50.7584 73.5674 51.4685 73.3029C52.782 72.7969 53.8513 71.8063 54.4562 70.5353C53.8335 68.793 53.2234 67.013 52.607 65.2393Z" fill="#7FDEDA"/>
<path d="M30.4468 72.8936L23.0625 75.441L24.9054 80.7685C26.1852 81.4063 27.6635 81.5192 29.0253 81.083C29.7339 80.8499 30.3882 80.4763 30.9491 79.9846C31.51 79.4929 31.966 78.8931 32.2897 78.2211C31.6733 76.441 31.0632 74.6673 30.4468 72.8936Z" fill="#DBDBDB"/>
<path d="M45.2235 67.7861L37.8203 70.3398L39.657 75.6673C40.3064 75.9931 41.0141 76.1865 41.7389 76.2361C42.4637 76.2858 43.1912 76.1908 43.879 75.9567C44.5668 75.7225 45.2011 75.3539 45.7451 74.8723C46.2891 74.3907 46.7318 73.8057 47.0476 73.1514C46.45 71.3399 45.8336 69.5662 45.2235 67.7861Z" fill="#DBDBDB"/>
<path d="M43.5543 79.3201L42.9062 79.5439L48.5178 95.7858L49.1658 95.5619L43.5543 79.3201Z" fill="#EDEDED"/>
<path d="M40.5872 89.118L40.8008 89.7363L51.3532 86.0905L51.1396 85.4722L40.5872 89.118Z" fill="#EDEDED"/>
<path d="M41.8256 93.5067L42.0391 94.125L52.5922 90.481L52.3786 89.8627L41.8256 93.5067Z" fill="#EDEDED"/>
<path d="M39.1029 84.7997L39.3164 85.418L49.8695 81.7739L49.656 81.1556L39.1029 84.7997Z" fill="#EDEDED"/>
<path d="M107.571 30.6376C107.226 31.515 106.629 32.2703 105.854 32.8081C105.079 33.3458 104.163 33.6418 103.22 33.6587C102.277 33.6756 101.351 33.4125 100.558 32.9028C99.7643 32.393 99.14 31.6595 98.7636 30.795C98.3872 29.9305 98.2755 28.9738 98.4428 28.0459C98.6101 27.1179 99.0488 26.2604 99.7034 25.5818C100.358 24.9031 101.199 24.4338 102.12 24.2332C103.042 24.0326 104.002 24.1096 104.879 24.4546C106.055 24.9188 106.999 25.8304 107.504 26.9895C108.009 28.1486 108.033 29.4606 107.571 30.6376Z" fill="#FFB347"/>
<path d="M107.062 30.4366C106.757 31.2135 106.228 31.8823 105.543 32.3585C104.857 32.8348 104.046 33.0971 103.211 33.1122C102.376 33.1273 101.556 32.8946 100.854 32.4435C100.151 31.9925 99.5986 31.3432 99.2653 30.578C98.9319 29.8127 98.8329 28.9658 98.9809 28.1443C99.1289 27.3228 99.5171 26.5636 100.097 25.9627C100.676 25.3619 101.421 24.9463 102.236 24.7686C103.052 24.5909 103.902 24.6591 104.679 24.9644C105.194 25.1672 105.665 25.4696 106.064 25.8543C106.463 26.2391 106.782 26.6986 107.004 27.2068C107.225 27.7149 107.344 28.2617 107.354 28.8159C107.364 29.3701 107.265 29.9208 107.062 30.4366Z" fill="#F9DEBB"/>
<path d="M106.614 30.261C106.343 30.9481 105.875 31.5395 105.268 31.9604C104.661 32.3814 103.943 32.613 103.205 32.6261C102.466 32.6391 101.74 32.433 101.119 32.0338C100.498 31.6346 100.009 31.0602 99.7135 30.3831C99.4184 29.706 99.3306 28.9567 99.4612 28.2298C99.5918 27.5028 99.935 26.8309 100.447 26.2989C100.96 25.7669 101.618 25.3987 102.34 25.2407C103.061 25.0828 103.813 25.1422 104.501 25.4115C105.424 25.7748 106.165 26.4896 106.561 27.3989C106.957 28.3082 106.977 29.3376 106.614 30.261Z" fill="#FFB347"/>
<g style="mix-blend-mode:overlay" opacity="0.23">
<path d="M105.849 24.9775C106.198 25.6035 106.43 26.2876 106.535 26.9966C106.83 29.5125 104.711 32.236 101.924 31.953C100.76 31.8413 99.6512 31.4054 98.7227 30.695C99.0022 31.3832 99.4387 31.9965 99.9973 32.4861C100.556 32.9757 101.221 33.328 101.94 33.515C102.659 33.7019 103.411 33.7183 104.138 33.5628C104.864 33.4073 105.544 33.0843 106.123 32.6195C106.703 32.1547 107.166 31.5609 107.475 30.8856C107.784 30.2102 107.931 29.472 107.905 28.7297C107.878 27.9874 107.678 27.2615 107.321 26.6101C106.964 25.9587 106.46 25.3996 105.849 24.9775Z" fill="black"/>
</g>
<path d="M109.393 64.4648L73.9219 52.1611L73.151 54.3836L108.622 66.6873L109.393 64.4648Z" fill="#009ABF"/>
<path d="M114.339 46.2031L81.3398 34.7568L75.1519 52.5963L108.151 64.0425L114.339 46.2031Z" fill="#24A19C"/>
<path d="M113.369 34.8566L88.9453 26.3848L87.4715 30.6337L111.895 39.1055L113.369 34.8566Z" fill="#7FDEDA"/>
<path d="M109.389 64.4639L73.918 52.1602L73.5057 53.3487L108.977 65.6524L109.389 64.4639Z" fill="#24A19C"/>
<path d="M97.2912 46.2293L82.7617 41.1895L79.979 49.2119L94.5085 54.2517L97.2912 46.2293Z" fill="#EDEDED"/>
<path d="M83.2132 42.42L81.0117 48.7666L93.9664 53.2602L96.1679 46.9136L83.2132 42.42Z" fill="#92C9F8"/>
<path d="M109.39 50.4294L101.195 47.5869L96.8502 60.1137L105.045 62.9562L109.39 50.4294Z" fill="#EDEDED"/>
<path d="M101.627 48.7574L97.5977 60.375L104.289 62.696L108.319 51.0783L101.627 48.7574Z" fill="#92C9F8"/>
<path d="M95.3649 53.7407L79.6172 48.2783L79.1967 49.4906L94.9444 54.953L95.3649 53.7407Z" fill="#EDEDED"/>
<g opacity="0.34">
<path d="M89.0313 44.4387L83.276 49.5523L82.125 49.1561L87.8739 44.0361L89.0313 44.4387Z" fill="white"/>
<path d="M92.8303 45.7535L87.0751 50.8734L86.6348 50.7162L92.3837 45.6025L92.8303 45.7535Z" fill="white"/>
<path d="M95.0699 46.5263L89.3147 51.6462L87.7422 51.099L93.4974 45.9854L95.0699 46.5263Z" fill="white"/>
<path d="M89.9428 44.753L84.1939 49.873L83.6152 49.6717L89.3705 44.5518L89.9428 44.753Z" fill="white"/>
</g>
<g opacity="0.34">
<path d="M106.282 50.3824L98.9922 56.364L99.6841 54.3827L105.068 49.9609L106.282 50.3824Z" fill="white"/>
<path d="M107.471 53.5332L107.207 54.288L99.1432 60.9175L98.6777 60.754L107.471 53.5332Z" fill="white"/>
<path d="M106.811 55.4385L105.873 58.1431L101.502 61.7346L99.8477 61.1623L106.811 55.4385Z" fill="white"/>
<path d="M107.245 50.7158L98.4453 57.9429L98.7912 56.9491L106.635 50.502L107.245 50.7158Z" fill="white"/>
</g>
<path d="M88.7648 28.5818L84.0914 26.959L79.5312 33.2489L84.8084 35.0792L88.7648 28.5818Z" fill="#24A19C"/>
<path d="M93.4383 30.2048L88.7649 28.582L84.8086 35.0795L90.0921 36.9161L93.4383 30.2048Z" fill="#EDEDED"/>
<path d="M98.1196 31.8279L93.44 30.2051L90.0938 36.9164L95.3773 38.7467L98.1196 31.8279Z" fill="#24A19C"/>
<path d="M107.472 35.0671L102.792 33.4443L100.66 40.577L105.944 42.4137L107.472 35.0671Z" fill="#24A19C"/>
<path d="M116.821 38.3122L112.147 36.6895L111.223 44.2436L116.506 46.0739L116.821 38.3122Z" fill="#24A19C"/>
<path d="M102.791 33.4436L98.1174 31.8271L95.375 38.746L100.658 40.5763L102.791 33.4436Z" fill="#EDEDED"/>
<path d="M112.147 36.6892L107.474 35.0664L105.945 42.413L111.223 44.2433L112.147 36.6892Z" fill="#EDEDED"/>
<path d="M84.8153 35.0794L79.5318 33.249L78.2109 37.0607C78.4334 37.5308 78.7473 37.9518 79.1344 38.2992C79.5215 38.6465 79.9739 38.9132 80.4653 39.0836C80.9567 39.2541 81.4771 39.3248 81.9961 39.2917C82.5152 39.2587 83.0224 39.1224 83.4881 38.891C83.9284 37.6205 84.3708 36.3499 84.8153 35.0794Z" fill="#7FDEDA"/>
<path d="M90.0926 36.9167L84.8155 35.0801L83.4883 38.8917C83.71 39.3632 84.0239 39.7856 84.4113 40.134C84.7988 40.4824 85.252 40.7497 85.7443 40.9203C86.2367 41.0908 86.7581 41.1612 87.2781 41.1271C87.798 41.0931 88.3059 40.9554 88.7718 40.7221L90.0926 36.9167Z" fill="#DBDBDB"/>
<path d="M95.3778 38.7464L90.0943 36.916L88.7734 40.6899C89.2114 41.6164 89.9949 42.3344 90.956 42.6901C91.4576 42.8716 91.9904 42.9507 92.523 42.9226C93.0557 42.8945 93.5773 42.7598 94.0569 42.5266L95.3778 38.7464Z" fill="#7FDEDA"/>
<path d="M105.944 42.4075L100.661 40.5771L99.3398 44.3888C99.8106 45.3185 100.624 46.029 101.609 46.3705C102.593 46.712 103.672 46.6577 104.617 46.2192C105.066 44.9486 105.508 43.6781 105.944 42.4075Z" fill="#7FDEDA"/>
<path d="M116.503 46.0735L111.219 44.2432L109.898 48.0548C110.136 48.5418 110.47 48.9757 110.879 49.3303C111.289 49.6848 111.766 49.9528 112.282 50.1179C113.243 50.4159 114.281 50.3326 115.182 49.8852L116.503 46.0735Z" fill="#7FDEDA"/>
<path d="M100.659 40.5764L95.3756 38.7461L94.0547 42.5578C94.2784 43.0275 94.5933 43.4481 94.9811 43.795C95.3689 44.1419 95.8217 44.4083 96.3134 44.5786C96.805 44.749 97.3256 44.8198 97.8449 44.7871C98.3642 44.7544 98.8718 44.6188 99.3382 44.3881L100.659 40.5764Z" fill="#DBDBDB"/>
<path d="M111.222 44.2439L105.944 42.4072L104.617 46.2189C104.849 46.6998 105.174 47.1292 105.575 47.4815C105.976 47.8338 106.444 48.1017 106.951 48.2694C107.924 48.5848 108.983 48.5081 109.901 48.0555L111.222 44.2439Z" fill="#DBDBDB"/>
<path d="M105.167 50.0075L104.703 49.8467L100.671 61.4636L101.135 61.6245L105.167 50.0075Z" fill="#EDEDED"/>
<path d="M99.1858 54.1744L99.0312 54.6201L106.578 57.2379L106.733 56.7922L99.1858 54.1744Z" fill="#EDEDED"/>
<path d="M97.9241 57.191L97.7695 57.6367L105.317 60.2545L105.471 59.8088L97.9241 57.191Z" fill="#EDEDED"/>
<path d="M100.241 51.0846L100.086 51.5303L107.633 54.1481L107.788 53.7024L100.241 51.0846Z" fill="#EDEDED"/>
<path d="M44.4803 3.86215C44.7975 4.89581 44.8011 6.00035 44.4905 7.03603C44.1799 8.07172 43.5691 8.99201 42.7354 9.6805C41.9016 10.369 40.8824 10.7947 39.8067 10.9039C38.731 11.013 37.647 10.8007 36.692 10.2937C35.737 9.78667 34.9538 9.00781 34.4415 8.05562C33.9292 7.10343 33.7108 6.02069 33.814 4.94437C33.9172 3.86805 34.3372 2.8465 35.0211 2.00897C35.7049 1.17143 36.6218 0.555531 37.6558 0.239182C39.0412 -0.184706 40.5382 -0.0412097 41.8179 0.638137C43.0976 1.31748 44.0552 2.4771 44.4803 3.86215Z" fill="#FFB347"/>
<path d="M43.882 4.0446C44.1632 4.959 44.167 5.93626 43.8928 6.85279C43.6186 7.76933 43.0787 8.58396 42.3415 9.19368C41.6043 9.8034 40.7029 10.1808 39.7512 10.2782C38.7995 10.3756 37.8403 10.1886 36.9948 9.74078C36.1494 9.293 35.4558 8.60459 35.0016 7.76258C34.5475 6.92058 34.3532 5.96282 34.4434 5.01041C34.5336 4.058 34.9042 3.15372 35.5083 2.41194C36.1125 1.67015 36.923 1.12418 37.8374 0.843054C38.4445 0.655553 39.0826 0.58966 39.7152 0.64915C40.3478 0.708639 40.9625 0.892344 41.524 1.18974C42.0854 1.48713 42.5827 1.89238 42.9874 2.38226C43.392 2.87214 43.696 3.43704 43.882 4.0446Z" fill="#F9DEBB"/>
<path d="M43.3524 4.22006C43.597 5.02937 43.5966 5.89296 43.3513 6.70205C43.1059 7.51114 42.6267 8.22954 41.9738 8.76674C41.321 9.30395 40.5237 9.63594 39.6826 9.7209C38.8414 9.80585 37.9939 9.63997 37.2468 9.24415C36.4997 8.84833 35.8865 8.24027 35.4843 7.49657C35.0822 6.75287 34.9091 5.90679 34.9869 5.06492C35.0648 4.22305 35.39 3.42303 35.9216 2.76565C36.4533 2.10826 37.1676 1.62292 37.9746 1.37075C38.5147 1.20196 39.0829 1.14188 39.6464 1.19396C40.2099 1.24605 40.7575 1.40928 41.2575 1.67421C41.7576 1.93914 42.2002 2.30053 42.5597 2.7375C42.9193 3.17447 43.1887 3.67836 43.3524 4.22006Z" fill="#FFB347"/>
<g style="mix-blend-mode:overlay" opacity="0.23">
<path d="M38.8915 0.0130245C39.648 0.333503 40.3422 0.784901 40.942 1.34648C42.9799 3.37181 43.0428 7.3533 40.313 9.0893C39.1879 9.81701 37.879 10.2097 36.5391 10.2215C37.2801 10.6417 38.1092 10.8829 38.9601 10.9258C39.8109 10.9687 40.66 10.8121 41.4396 10.4686C42.2192 10.125 42.9077 9.60394 43.4501 8.947C43.9926 8.29006 44.3739 7.51542 44.5638 6.6849C44.7536 5.85438 44.7467 4.99098 44.5436 4.16361C44.3404 3.33624 43.9467 2.5678 43.3938 1.91964C42.8409 1.27147 42.1442 0.761524 41.3592 0.430487C40.5742 0.0994495 39.7227 -0.0435078 38.8726 0.0130245H38.8915Z" fill="black"/>
</g>
<path d="M61.942 27.2536L31.3594 36.6387L31.948 38.5569L62.5307 29.1718L61.942 27.2536Z" fill="#009ABF"/>
<path d="M56.155 12.1987L27.707 20.9287L32.4273 36.3102L60.8753 27.5802L56.155 12.1987Z" fill="#24A19C"/>
<path d="M49.7805 4.89331L28.7227 11.3555L29.8464 15.0174L50.9043 8.55529L49.7805 4.89331Z" fill="#7FDEDA"/>
<path d="M61.942 27.2555L31.3594 36.6406L31.6731 37.6629L62.2557 28.2778L61.942 27.2555Z" fill="#24A19C"/>
<path d="M44.4571 20.797L31.9258 24.6426L34.0479 31.5576L46.5792 27.7121L44.4571 20.797Z" fill="#EDEDED"/>
<path d="M44.0278 21.8283L32.8555 25.2568L34.5347 30.7288L45.707 27.3002L44.0278 21.8283Z" fill="#92C9F8"/>
<path d="M54.8818 17.6004L47.8164 19.7686L51.1324 30.5741L58.1978 28.4059L54.8818 17.6004Z" fill="#EDEDED"/>
<path d="M54.4814 18.5888L48.7148 20.3584L51.7891 30.3762L57.5557 28.6066L54.4814 18.5888Z" fill="#92C9F8"/>
<path d="M46.8979 26.9359L33.3203 31.1025L33.6414 32.1488L47.219 27.9822L46.8979 26.9359Z" fill="#EDEDED"/>
<g opacity="0.34">
<path d="M37.8635 23.708L36.486 30.1174L35.4922 30.4256L36.8697 24.0099L37.8635 23.708Z" fill="white"/>
<path d="M41.1401 22.7021L39.7563 29.1178L39.3789 29.231L40.7564 22.8154L41.1401 22.7021Z" fill="white"/>
<path d="M43.072 22.1104L41.6883 28.5197L40.3359 28.9411L41.7134 22.5255L43.072 22.1104Z" fill="white"/>
<path d="M38.6561 23.4629L37.2723 29.8786L36.7754 30.0295L38.1592 23.6201L38.6561 23.4629Z" fill="white"/>
</g>
<g opacity="0.34">
<path d="M52.7176 19.1152L50.7174 26.8958L50.1953 25.185L51.6671 19.436L52.7176 19.1152Z" fill="white"/>
<path d="M55.12 20.6816L55.3212 21.3295L53.1072 29.9466L52.7109 30.0724L55.12 20.6816Z" fill="white"/>
<path d="M55.6226 22.3232L56.3397 24.6568L55.1446 29.3239L53.7168 29.7642L55.6226 22.3232Z" fill="white"/>
<path d="M53.5482 18.8574L51.1329 28.2545L50.875 27.3991L53.0261 19.0147L53.5482 18.8574Z" fill="white"/>
</g>
<path d="M29.7037 12.9326L25.6719 14.1717L25.7033 20.7949L30.2572 19.3923L29.7037 12.9326Z" fill="#24A19C"/>
<path d="M33.7349 11.7002L29.7031 12.933L30.2566 19.3927L34.8105 17.9964L33.7349 11.7002Z" fill="#EDEDED"/>
<path d="M37.7662 10.4609L33.7344 11.7L34.8099 17.9962L39.3638 16.5998L37.7662 10.4609Z" fill="#24A19C"/>
<path d="M45.8326 7.96973L41.8008 9.20883L43.9205 15.1905L48.4743 13.7879L45.8326 7.96973Z" fill="#24A19C"/>
<path d="M53.8873 5.49805L49.8555 6.73715L53.0256 12.3917L57.5794 10.9954L53.8873 5.49805Z" fill="#24A19C"/>
<path d="M41.8013 9.22168L37.7695 10.4608L39.3671 16.5997L43.921 15.2033L41.8013 9.22168Z" fill="#EDEDED"/>
<path d="M49.8576 6.7373L45.832 7.97012L48.4738 13.7882L53.0276 12.3919L49.8576 6.7373Z" fill="#EDEDED"/>
<path d="M30.2687 19.3926L25.7148 20.7952L26.7212 24.0785C27.1109 24.2905 27.5389 24.4226 27.9803 24.4671C28.4217 24.5115 28.8675 24.4674 29.2916 24.3374C29.7157 24.2073 30.1096 23.9939 30.4502 23.7097C30.7908 23.4255 31.0712 23.0762 31.2751 22.6822L30.2687 19.3926Z" fill="#7FDEDA"/>
<path d="M34.8108 17.9961L30.2695 19.3924L31.2759 22.682C31.666 22.8938 32.0944 23.0255 32.536 23.0695C32.9776 23.1135 33.4236 23.0689 33.8478 22.9383C34.2719 22.8076 34.6657 22.5936 35.0061 22.3087C35.3464 22.0239 35.6265 21.6739 35.8298 21.2794C35.4838 20.2101 35.1442 19.0905 34.8108 17.9961Z" fill="#DBDBDB"/>
<path d="M39.3664 16.5996L34.8125 17.996L35.8189 21.2793C36.5885 21.6987 37.4924 21.7981 38.3348 21.556C38.7707 21.4291 39.1764 21.2155 39.5276 20.928C39.8789 20.6405 40.1685 20.2851 40.379 19.8829C40.0394 18.7885 39.706 17.694 39.3664 16.5996Z" fill="#7FDEDA"/>
<path d="M48.4718 13.8008L43.918 15.1783L44.9243 18.4616C45.7172 18.8596 46.6331 18.9366 47.4813 18.6765C48.3295 18.4164 49.0447 17.8393 49.4782 17.0652C49.1386 15.9959 48.8052 14.9015 48.4718 13.8008Z" fill="#7FDEDA"/>
<path d="M57.5812 11.0078L53.0273 12.4042L54.0337 15.6875C54.4226 15.8983 54.8497 16.0295 55.2899 16.0734C55.7301 16.1172 56.1747 16.0728 56.5975 15.9428C57.0204 15.8128 57.4131 15.5997 57.7526 15.3161C58.0922 15.0325 58.3718 14.6841 58.575 14.2911C58.2542 13.1967 57.946 12.1022 57.5812 11.0078Z" fill="#7FDEDA"/>
<path d="M43.9211 15.1787L39.3672 16.5751L40.3736 19.8584C40.7632 20.0704 41.1913 20.2025 41.6327 20.2469C42.074 20.2913 42.5198 20.2472 42.944 20.1172C43.3681 19.9872 43.7619 19.7738 44.1025 19.4896C44.4431 19.2053 44.7236 18.856 44.9274 18.462C44.5941 17.3927 44.2544 16.2983 43.9211 15.1787Z" fill="#DBDBDB"/>
<path d="M53.0265 12.4043L48.4727 13.8006L49.479 17.0902C49.8799 17.3047 50.3201 17.4359 50.773 17.4759C51.2259 17.5159 51.6822 17.4639 52.1145 17.323C52.9336 17.0464 53.6113 16.4591 54.0015 15.6876C53.6995 14.5932 53.3599 13.4987 53.0265 12.4043Z" fill="#DBDBDB"/>
<path d="M51.7701 19.3998L51.3672 19.5234L54.4414 29.5413L54.8443 29.4176L51.7701 19.3998Z" fill="#EDEDED"/>
<path d="M49.7335 25.2987L49.8516 25.6836L56.3577 23.687L56.2396 23.3022L49.7335 25.2987Z" fill="#EDEDED"/>
<path d="M50.4014 27.997L50.5195 28.3818L57.0254 26.3841L56.9072 25.9993L50.4014 27.997Z" fill="#EDEDED"/>
<path d="M48.9209 22.6308L49.0391 23.0156L55.5449 21.0179L55.4267 20.6331L48.9209 22.6308Z" fill="#EDEDED"/>
<path d="M99.614 95.9903C99.3927 96.5545 99.0091 97.0403 98.5116 97.3864C98.0142 97.7324 97.4252 97.9231 96.8193 97.9344C96.2134 97.9457 95.6178 97.777 95.1079 97.4496C94.5979 97.1223 94.1964 96.6511 93.9543 96.0956C93.7122 95.54 93.6403 94.9252 93.7477 94.3288C93.8551 93.7324 94.137 93.1813 94.5578 92.7451C94.9785 92.309 95.5191 92.0074 96.1112 91.8786C96.7034 91.7498 97.3204 91.7995 97.8843 92.0214C98.6397 92.3188 99.2461 92.9038 99.5705 93.648C99.8948 94.3921 99.9105 95.2346 99.614 95.9903Z" fill="#FFB347"/>
<path d="M99.2683 95.8639C99.0717 96.3628 98.7317 96.7921 98.2911 97.0977C97.8505 97.4033 97.3292 97.5713 96.7931 97.5806C96.2571 97.5899 95.7302 97.4401 95.2793 97.15C94.8284 96.8599 94.4737 96.4426 94.2599 95.9509C94.0461 95.4592 93.983 94.9151 94.0785 94.3875C94.1739 93.8599 94.4237 93.3724 94.7962 92.9868C95.1687 92.6011 95.6471 92.3346 96.1711 92.2209C96.6951 92.1071 97.241 92.1513 97.7398 92.3479C98.0711 92.4784 98.3734 92.6729 98.6294 92.9202C98.8855 93.1675 99.0903 93.4629 99.2323 93.7894C99.3742 94.1158 99.4504 94.4671 99.4566 94.8231C99.4628 95.179 99.3988 95.5327 99.2683 95.8639Z" fill="#F9DEBB"/>
<path d="M98.9845 95.7507C98.8053 96.1872 98.5012 96.5612 98.1104 96.8256C97.7195 97.0901 97.2593 97.2332 96.7875 97.2371C96.3156 97.241 95.853 97.1056 95.4579 96.8477C95.0627 96.5898 94.7524 96.2209 94.566 95.7874C94.3796 95.3539 94.3253 94.875 94.41 94.4108C94.4947 93.9465 94.7145 93.5176 95.042 93.1778C95.3694 92.8381 95.7899 92.6025 96.2507 92.5007C96.7115 92.399 97.1921 92.4355 97.6322 92.6058C97.9295 92.7208 98.2009 92.894 98.4305 93.1152C98.66 93.3364 98.8431 93.6012 98.9691 93.8941C99.095 94.187 99.1612 94.502 99.1639 94.8208C99.1665 95.1396 99.1056 95.4558 98.9845 95.7507Z" fill="#FFB347"/>
<g style="mix-blend-mode:overlay" opacity="0.23">
<path d="M98.4892 92.3545C98.7137 92.7577 98.8609 93.1993 98.9232 93.6565C99.1119 95.2541 97.7533 97.0216 95.967 96.8392C95.217 96.7653 94.5036 96.4795 93.9102 96.0152C94.0895 96.4557 94.3692 96.8482 94.7269 97.1616C95.0846 97.475 95.5105 97.7006 95.9707 97.8205C96.4309 97.9404 96.9127 97.9513 97.3779 97.8522C97.843 97.7532 98.2787 97.547 98.6502 97.25C99.0216 96.9531 99.3187 96.5735 99.5177 96.1416C99.7167 95.7097 99.8122 95.2372 99.7965 94.7619C99.7809 94.2866 99.6546 93.8215 99.4277 93.4036C99.2007 92.9856 98.8793 92.6264 98.4892 92.3545Z" fill="black"/>
</g>
<path d="M98.877 115.058L79.0078 107.251L78.5179 108.498L98.3871 116.305L98.877 115.058Z" fill="#009ABF"/>
<path d="M101.409 105.766L82.9414 98.4189L78.9688 108.404L97.4359 115.751L101.409 105.766Z" fill="#24A19C"/>
<path d="M101.822 98.3334L88.1406 92.958L87.2045 95.3407L100.886 100.716L101.822 98.3334Z" fill="#7FDEDA"/>
<path d="M98.8731 115.06L79.0039 107.253L78.7417 107.92L98.6109 115.727L98.8731 115.06Z" fill="#24A19C"/>
<path d="M92.4186 104.423L84.2812 101.226L82.5147 105.722L90.6521 108.919L92.4186 104.423Z" fill="#EDEDED"/>
<path d="M85.4478 102.629L84.0352 106.18L91.2886 109.065L92.7013 105.515L85.4478 102.629Z" fill="#92C9F8"/>
<path d="M99.203 107.088L94.6133 105.285L91.8554 112.304L96.4451 114.108L99.203 107.088Z" fill="#EDEDED"/>
<path d="M94.8406 105.968L92.2852 112.472L96.0319 113.944L98.5873 107.44L94.8406 105.968Z" fill="#92C9F8"/>
<path d="M90.4325 109.574L81.6172 106.066L81.3472 106.745L90.1625 110.252L90.4325 109.574Z" fill="#EDEDED"/>
<g opacity="0.34">
<path d="M87.7779 103.205L84.3939 105.979L83.7461 105.727L87.13 102.953L87.7779 103.205Z" fill="white"/>
<path d="M89.9046 104.041L86.5207 106.814L86.2754 106.72L89.6593 103.946L89.9046 104.041Z" fill="white"/>
<path d="M91.1552 104.531L87.7712 107.312L86.8906 106.966L90.2746 104.186L91.1552 104.531Z" fill="white"/>
<path d="M88.2868 103.406L84.9028 106.186L84.582 106.054L87.966 103.28L88.2868 103.406Z" fill="white"/>
</g>
<g opacity="0.34">
<path d="M97.4392 106.979L93.1621 110.212L93.6024 109.099L96.7599 106.715L97.4392 106.979Z" fill="white"/>
<path d="M98.0444 108.797L97.8809 109.225L93.1446 112.804L92.8867 112.703L98.0444 108.797Z" fill="white"/>
<path d="M97.6275 109.866L97.03 111.382L94.4637 113.319L93.5391 112.955L97.6275 109.866Z" fill="white"/>
<path d="M97.9804 107.193L92.8164 111.092L93.0366 110.539L97.6407 107.061L97.9804 107.193Z" fill="white"/>
</g>
<path d="M87.9933 94.1913L85.3767 93.166L82.6406 96.6317L85.5969 97.7954L87.9933 94.1913Z" fill="#24A19C"/>
<path d="M90.6107 95.2229L87.9941 94.1914L85.5977 97.7955L88.5602 98.9591L90.6107 95.2229Z" fill="#EDEDED"/>
<path d="M93.232 96.2489L90.6091 95.2236L88.5586 98.9598L91.5148 100.117L93.232 96.2489Z" fill="#24A19C"/>
<path d="M98.4667 98.3045L95.8501 97.2793L94.4727 101.28L97.4352 102.443L98.4667 98.3045Z" fill="#24A19C"/>
<path d="M103.705 100.368L101.089 99.3369L100.391 103.608L103.347 104.771L103.705 100.368Z" fill="#24A19C"/>
<path d="M95.8494 97.2796L93.2328 96.248L91.5156 100.116L94.4719 101.28L95.8494 97.2796Z" fill="#EDEDED"/>
<path d="M101.088 99.3362L98.4651 98.3047L97.4336 102.443L100.39 103.607L101.088 99.3362Z" fill="#EDEDED"/>
<path d="M85.6194 97.7955L82.6632 96.6318L81.8203 98.7641C81.9404 99.0382 82.1133 99.2859 82.3291 99.4931C82.545 99.7003 82.7995 99.863 83.0783 99.9718C83.3523 100.078 83.6445 100.128 83.9381 100.121C84.2317 100.113 84.521 100.048 84.7891 99.9277L85.6194 97.7955Z" fill="#7FDEDA"/>
<path d="M88.5506 98.9595L85.5944 97.7959L84.7578 99.9282C84.8719 100.198 85.0386 100.443 85.2481 100.648C85.4575 100.853 85.7057 101.015 85.978 101.123C86.2529 101.238 86.548 101.298 86.8461 101.298C87.1441 101.298 87.4392 101.238 87.714 101.123C87.9971 100.381 88.2739 99.6703 88.5506 98.9595Z" fill="#DBDBDB"/>
<path d="M91.5139 100.091L88.5514 98.9336L87.7148 101.066C87.9437 101.602 88.3723 102.029 88.9099 102.255C89.1898 102.372 89.4902 102.433 89.7937 102.433C90.0971 102.433 90.3976 102.372 90.6774 102.255C90.9541 101.544 91.2309 100.833 91.5139 100.091Z" fill="#7FDEDA"/>
<path d="M97.4319 102.444L94.4694 101.28L93.6328 103.419C93.8821 103.963 94.3332 104.389 94.8908 104.608C95.4322 104.811 96.0305 104.799 96.5639 104.576L97.4319 102.444Z" fill="#7FDEDA"/>
<path d="M103.347 104.771L100.391 103.607L99.5547 105.752C99.6738 106.04 99.8509 106.3 100.075 106.517C100.299 106.733 100.565 106.901 100.857 107.01C101.397 107.199 101.989 107.175 102.511 106.941L103.347 104.771Z" fill="#7FDEDA"/>
<path d="M94.4725 101.28L91.5162 100.116L90.6797 102.255C90.9062 102.789 91.3329 103.214 91.8685 103.437C92.1479 103.556 92.4485 103.617 92.7522 103.617C93.0559 103.617 93.3564 103.556 93.6359 103.437C93.9127 102.701 94.1957 101.978 94.4725 101.28Z" fill="#DBDBDB"/>
<path d="M100.389 103.608L97.4327 102.444L96.5898 104.577C96.7054 104.85 96.8743 105.097 97.0866 105.304C97.2989 105.511 97.5505 105.673 97.8264 105.781C98.1024 105.89 98.3972 105.942 98.6935 105.935C98.9899 105.928 99.2819 105.862 99.5524 105.74L100.389 103.608Z" fill="#DBDBDB"/>
<path d="M96.8357 106.722L96.5781 106.621L94.0215 113.125L94.2791 113.226L96.8357 106.722Z" fill="#EDEDED"/>
<path d="M93.331 108.982L93.2344 109.228L97.4611 110.888L97.5577 110.642L93.331 108.982Z" fill="#EDEDED"/>
<path d="M92.538 110.654L92.4414 110.899L96.6684 112.559L96.765 112.313L92.538 110.654Z" fill="#EDEDED"/>
<path d="M94.0068 107.254L93.9102 107.5L98.1363 109.162L98.233 108.916L94.0068 107.254Z" fill="#EDEDED"/>
</svg>
