<svg width="20" height="23" viewBox="0 0 20 23" fill="none" xmlns="http://www.w3.org/2000/svg">
<path d="M18.6965 0.460965C18.855 0.557677 18.9834 0.6966 19.0674 0.862176C19.1514 1.02775 19.1877 1.21344 19.1721 1.39845L17.4891 21.4526C17.4731 21.6407 17.4042 21.8204 17.2904 21.971C17.1766 22.1216 17.0224 22.2369 16.8458 22.3036C16.6692 22.3703 16.4773 22.3856 16.2924 22.3478C16.1074 22.31 15.9369 22.2206 15.8006 22.0899L9.31596 15.8515L0.800305 12.9472C0.621553 12.8861 0.463763 12.7756 0.345205 12.6286C0.226647 12.4815 0.15217 12.3039 0.130397 12.1162C0.108625 11.9286 0.140448 11.7386 0.222182 11.5683C0.303915 11.398 0.432217 11.2543 0.592229 11.1539L17.6453 0.467886C17.8026 0.369263 17.9843 0.316379 18.17 0.315157C18.3556 0.313935 18.5379 0.364422 18.6965 0.460965ZM11.1202 14.8128L15.6723 19.1917L16.8254 5.4524L11.1202 14.8128ZM15.1176 4.4115L3.43429 11.7326L9.41241 13.7719L15.1176 4.4115Z" fill="#555555"/>
</svg>
